<svg version="1.0" xmlns="http://www.w3.org/2000/svg" width="16.000000pt" height="16.000000pt"
    viewBox="0 0 16.000000 16.000000" preserveAspectRatio="xMidYMid meet">
    <g transform="translate(0.000000,16.000000) scale(0.100000,-0.100000)" fill="#000000" stroke="none">
        <path d="M104 138 c-4 -6 -3 -8 3 -5 13 8 36 -17 25 -28 -4 -5 -1 -5 6 -1 11
6 10 12 -4 27 -20 22 -21 22 -30 7z" />
        <path d="M50 100 c0 -5 5 -10 11 -10 5 0 7 5 4 10 -3 6 -8 10 -11 10 -2 0 -4
-4 -4 -10z" />
        <path d="M70 62 c0 -12 4 -22 9 -22 10 0 9 26 -2 36 -4 4 -7 -2 -7 -14z" />
        <path d="M16 51 c-3 -4 3 -16 13 -25 15 -14 21 -15 27 -4 4 7 4 10 -1 6 -10
-10 -37 11 -29 23 3 5 3 9 0 9 -3 0 -7 -4 -10 -9z" />
        <path d="M134 51 c8 -12 -19 -33 -29 -23 -5 4 -5 1 -1 -6 6 -11 12 -10 27 4
16 14 18 34 3 34 -3 0 -3 -4 0 -9z" />
    </g>
</svg>