<svg width="32" height="32" viewBox="0 0 32 32" fill="none" xmlns="http://www.w3.org/2000/svg">
<rect width="32" height="32" rx="3.2" fill="#1E1E25"/>
<g clip-path="url(#clip0_917_68414)">
<path d="M9.7815 22.4013C10.0019 21.7767 10.4106 21.2359 10.9512 20.8534C11.4919 20.4708 12.1379 20.2654 12.8002 20.2654C13.4625 20.2654 14.1085 20.4708 14.6491 20.8534C15.1898 21.2359 15.5985 21.7767 15.8188 22.4013L25.6002 22.4013C26.1893 22.4013 26.6668 22.8789 26.6668 23.468C26.6668 24.0571 26.1893 24.5346 25.6002 24.5346L15.8188 24.5346C15.5985 25.1592 15.1898 25.7001 14.6491 26.0826C14.1085 26.4652 13.4625 26.6706 12.8002 26.6706C12.1379 26.6706 11.4919 26.4652 10.9512 26.0826C10.4106 25.7001 10.0019 25.1592 9.7815 24.5346H6.40016C5.81106 24.5346 5.3335 24.0571 5.3335 23.468C5.3335 22.8789 5.81106 22.4013 6.40016 22.4013H9.7815ZM16.1815 14.9346C16.4019 14.3101 16.8106 13.7692 17.3512 13.3867C17.8919 13.0041 18.5379 12.7987 19.2002 12.7987C19.8625 12.7987 20.5085 13.0041 21.0491 13.3867C21.5898 13.7692 21.9985 14.3101 22.2188 14.9346H25.6002C26.1893 14.9346 26.6668 15.4122 26.6668 16.0013C26.6668 16.5904 26.1893 17.068 25.6002 17.068H22.2188C21.9985 17.6925 21.5898 18.2334 21.0491 18.6159C20.5085 18.9985 19.8625 19.2039 19.2002 19.2039C18.5379 19.2039 17.8919 18.9985 17.3512 18.6159C16.8106 18.2334 16.4019 17.6925 16.1815 17.068H6.40016C5.81106 17.068 5.3335 16.5904 5.3335 16.0013C5.3335 15.4122 5.81106 14.9346 6.40016 14.9346L16.1815 14.9346ZM9.7815 7.46798C10.0019 6.84341 10.4106 6.30257 10.9512 5.92002C11.4919 5.53747 12.1379 5.33203 12.8002 5.33203C13.4625 5.33203 14.1085 5.53747 14.6491 5.92002C15.1898 6.30257 15.5985 6.84341 15.8188 7.46798L25.6002 7.46798C26.1893 7.46798 26.6668 7.94554 26.6668 8.53465C26.6668 9.12375 26.1893 9.60131 25.6002 9.60131L15.8188 9.60131C15.5985 10.2259 15.1898 10.7667 14.6491 11.1493C14.1085 11.5318 13.4625 11.7373 12.8002 11.7373C12.1379 11.7373 11.4919 11.5318 10.9512 11.1493C10.4106 10.7667 10.0019 10.2259 9.7815 9.60131H6.40016C5.81106 9.60131 5.3335 9.12375 5.3335 8.53465C5.3335 7.94554 5.81106 7.46798 6.40016 7.46798L9.7815 7.46798ZM12.8002 9.60131C13.0831 9.60131 13.3544 9.48893 13.5544 9.28889C13.7544 9.08885 13.8668 8.81754 13.8668 8.53465C13.8668 8.25175 13.7544 7.98044 13.5544 7.7804C13.3544 7.58036 13.0831 7.46798 12.8002 7.46798C12.5173 7.46798 12.246 7.58036 12.0459 7.7804C11.8459 7.98044 11.7335 8.25175 11.7335 8.53465C11.7335 8.81754 11.8459 9.08885 12.0459 9.28889C12.246 9.48893 12.5173 9.60131 12.8002 9.60131ZM19.2002 17.068C19.4831 17.068 19.7544 16.9556 19.9544 16.7556C20.1544 16.5555 20.2668 16.2842 20.2668 16.0013C20.2668 15.7184 20.1544 15.4471 19.9544 15.2471C19.7544 15.047 19.4831 14.9346 19.2002 14.9346C18.9173 14.9346 18.646 15.047 18.4459 15.2471C18.2459 15.4471 18.1335 15.7184 18.1335 16.0013C18.1335 16.2842 18.2459 16.5555 18.4459 16.7556C18.646 16.9556 18.9173 17.068 19.2002 17.068ZM12.8002 24.5346C13.0831 24.5346 13.3544 24.4223 13.5544 24.2222C13.7544 24.0222 13.8668 23.7509 13.8668 23.468C13.8668 23.1851 13.7544 22.9138 13.5544 22.7137C13.3544 22.5137 13.0831 22.4013 12.8002 22.4013C12.5173 22.4013 12.246 22.5137 12.0459 22.7137C11.8459 22.9138 11.7335 23.1851 11.7335 23.468C11.7335 23.7509 11.8459 24.0222 12.0459 24.2222C12.246 24.4223 12.5173 24.5346 12.8002 24.5346Z" fill="#4AB3FF"/>
</g>
<defs>
<clipPath id="clip0_917_68414">
<rect width="25.6" height="25.6" fill="white" transform="translate(3.2002 3.19995)"/>
</clipPath>
</defs>
</svg>
