<svg width="24" height="24" viewBox="0 0 24 24" fill="none" xmlns="http://www.w3.org/2000/svg">
    <path class="user__icon" fill-rule="evenodd" clip-rule="evenodd"
        d="M11.9325 1H12.0675C14.37 1 16.3221 1.45949 17.9354 2.32231C19.5487 3.18513 20.8149 4.45128 21.6777 6.06461C22.5405 7.67795 23 9.62996 23 11.9325V12.0675C23 14.37 22.5405 16.3221 21.6777 17.9354C20.8149 19.5487 19.5487 20.8149 17.9354 21.6777C16.3221 22.5405 14.37 23 12.0675 23H11.9325C9.62996 23 7.67795 22.5405 6.06462 21.6777C4.45128 20.8149 3.18513 19.5487 2.32231 17.9354C1.497 16.3922 1.04072 14.5391 1.0026 12.3658L1 11.9325C1 9.62996 1.45949 7.67795 2.32231 6.06461C3.18513 4.45128 4.45128 3.18513 6.06462 2.32231C7.67795 1.45949 9.62996 1 11.9325 1ZM12 5C12.6202 5 13.1603 5.12658 13.6048 5.36427C14.0492 5.60196 14.398 5.95077 14.6357 6.39521C14.8734 6.83965 15 7.37974 15 8C15 8.62026 14.8734 9.16035 14.6357 9.60479C14.398 10.0492 14.0492 10.398 13.6048 10.6357C13.1603 10.8734 12.6202 11 12 11C11.3797 11 10.8396 10.8734 10.3952 10.6357C9.95075 10.398 9.60195 10.0492 9.36426 9.60479C9.12657 9.16035 8.99999 8.62026 8.99999 8C8.99999 7.37974 9.12657 6.83965 9.36426 6.39521C9.60195 5.95077 9.95075 5.60196 10.3952 5.36427C10.8396 5.12658 11.3797 5 12 5ZM17.6733 16.497C17.8932 16.2016 17.8932 15.7984 17.6733 15.503C17.5421 15.3267 17.4017 15.159 17.2524 15C16.8219 14.5416 16.3172 14.1563 15.7445 13.85C14.7075 13.2954 13.4473 13 12 13C10.5527 13 9.29251 13.2954 8.25547 13.85C7.68275 14.1563 7.17809 14.5416 6.74758 15C6.59827 15.159 6.45789 15.3267 6.32668 15.503C6.10677 15.7984 6.10677 16.2016 6.32668 16.497C6.45789 16.6733 6.59827 16.841 6.74758 17C7.17809 17.4584 7.68275 17.8437 8.25547 18.15C9.29251 18.7046 10.5527 19 12 19C13.4473 19 14.7075 18.7046 15.7445 18.15C16.3172 17.8437 16.8219 17.4584 17.2524 17C17.4017 16.841 17.5421 16.6733 17.6733 16.497Z"
        fill="#C1C1C1" />
</svg>